G04 #@! TF.GenerationSoftware,KiCad,Pcbnew,(5.0.0)*
G04 #@! TF.CreationDate,2018-09-15T21:58:09+09:00*
G04 #@! TF.ProjectId,Nixie_Module_IN-12,4E697869655F4D6F64756C655F494E2D,rev?*
G04 #@! TF.SameCoordinates,Original*
G04 #@! TF.FileFunction,Legend,Top*
G04 #@! TF.FilePolarity,Positive*
%FSLAX46Y46*%
G04 Gerber Fmt 4.6, Leading zero omitted, Abs format (unit mm)*
G04 Created by KiCad (PCBNEW (5.0.0)) date 09/15/18 21:58:09*
%MOMM*%
%LPD*%
G01*
G04 APERTURE LIST*
%ADD10C,0.160000*%
%ADD11C,0.150000*%
%ADD12C,0.120000*%
%ADD13C,0.200000*%
G04 APERTURE END LIST*
D10*
X86258476Y-65794000D02*
X86182285Y-65746380D01*
X86068000Y-65746380D01*
X85953714Y-65794000D01*
X85877523Y-65889238D01*
X85839428Y-65984476D01*
X85801333Y-66174952D01*
X85801333Y-66317809D01*
X85839428Y-66508285D01*
X85877523Y-66603523D01*
X85953714Y-66698761D01*
X86068000Y-66746380D01*
X86144190Y-66746380D01*
X86258476Y-66698761D01*
X86296571Y-66651142D01*
X86296571Y-66317809D01*
X86144190Y-66317809D01*
X86639428Y-66746380D02*
X86639428Y-65746380D01*
X87096571Y-66746380D01*
X87096571Y-65746380D01*
X87477523Y-66746380D02*
X87477523Y-65746380D01*
X87668000Y-65746380D01*
X87782285Y-65794000D01*
X87858476Y-65889238D01*
X87896571Y-65984476D01*
X87934666Y-66174952D01*
X87934666Y-66317809D01*
X87896571Y-66508285D01*
X87858476Y-66603523D01*
X87782285Y-66698761D01*
X87668000Y-66746380D01*
X87477523Y-66746380D01*
X83699428Y-66746380D02*
X83699428Y-65746380D01*
X83889904Y-65746380D01*
X84004190Y-65794000D01*
X84080380Y-65889238D01*
X84118476Y-65984476D01*
X84156571Y-66174952D01*
X84156571Y-66317809D01*
X84118476Y-66508285D01*
X84080380Y-66603523D01*
X84004190Y-66698761D01*
X83889904Y-66746380D01*
X83699428Y-66746380D01*
X84651809Y-65746380D02*
X84804190Y-65746380D01*
X84880380Y-65794000D01*
X84956571Y-65889238D01*
X84994666Y-66079714D01*
X84994666Y-66413047D01*
X84956571Y-66603523D01*
X84880380Y-66698761D01*
X84804190Y-66746380D01*
X84651809Y-66746380D01*
X84575619Y-66698761D01*
X84499428Y-66603523D01*
X84461333Y-66413047D01*
X84461333Y-66079714D01*
X84499428Y-65889238D01*
X84575619Y-65794000D01*
X84651809Y-65746380D01*
X80968952Y-66746380D02*
X80968952Y-65746380D01*
X81159428Y-65746380D01*
X81273714Y-65794000D01*
X81349904Y-65889238D01*
X81388000Y-65984476D01*
X81426095Y-66174952D01*
X81426095Y-66317809D01*
X81388000Y-66508285D01*
X81349904Y-66603523D01*
X81273714Y-66698761D01*
X81159428Y-66746380D01*
X80968952Y-66746380D01*
X81768952Y-66746380D02*
X81768952Y-65746380D01*
X82149904Y-66746380D02*
X82149904Y-65746380D01*
X82607047Y-66746380D01*
X82607047Y-65746380D01*
D11*
X78768666Y-65746380D02*
X78902000Y-65746380D01*
X78968666Y-65794000D01*
X79035333Y-65889238D01*
X79068666Y-66079714D01*
X79068666Y-66413047D01*
X79035333Y-66603523D01*
X78968666Y-66698761D01*
X78902000Y-66746380D01*
X78768666Y-66746380D01*
X78702000Y-66698761D01*
X78635333Y-66603523D01*
X78602000Y-66413047D01*
X78602000Y-66079714D01*
X78635333Y-65889238D01*
X78702000Y-65794000D01*
X78768666Y-65746380D01*
X79368666Y-66222571D02*
X79602000Y-66222571D01*
X79702000Y-66746380D02*
X79368666Y-66746380D01*
X79368666Y-65746380D01*
X79702000Y-65746380D01*
X79968666Y-66079714D02*
X80468666Y-66079714D01*
X80168666Y-65651142D02*
X79968666Y-66936857D01*
X80402000Y-66508285D02*
X79902000Y-66508285D01*
X80202000Y-66936857D02*
X80402000Y-65651142D01*
D10*
X70292380Y-66365428D02*
X70901904Y-66365428D01*
X70597142Y-66746380D02*
X70597142Y-65984476D01*
X71663809Y-65746380D02*
X71282857Y-65746380D01*
X71244761Y-66222571D01*
X71282857Y-66174952D01*
X71359047Y-66127333D01*
X71549523Y-66127333D01*
X71625714Y-66174952D01*
X71663809Y-66222571D01*
X71701904Y-66317809D01*
X71701904Y-66555904D01*
X71663809Y-66651142D01*
X71625714Y-66698761D01*
X71549523Y-66746380D01*
X71359047Y-66746380D01*
X71282857Y-66698761D01*
X71244761Y-66651142D01*
X71930476Y-65746380D02*
X72197142Y-66746380D01*
X72463809Y-65746380D01*
X73196571Y-66698761D02*
X73310857Y-66746380D01*
X73501333Y-66746380D01*
X73577523Y-66698761D01*
X73615619Y-66651142D01*
X73653714Y-66555904D01*
X73653714Y-66460666D01*
X73615619Y-66365428D01*
X73577523Y-66317809D01*
X73501333Y-66270190D01*
X73348952Y-66222571D01*
X73272761Y-66174952D01*
X73234666Y-66127333D01*
X73196571Y-66032095D01*
X73196571Y-65936857D01*
X73234666Y-65841619D01*
X73272761Y-65794000D01*
X73348952Y-65746380D01*
X73539428Y-65746380D01*
X73653714Y-65794000D01*
X73996571Y-66746380D02*
X73996571Y-65746380D01*
X74187047Y-65746380D01*
X74301333Y-65794000D01*
X74377523Y-65889238D01*
X74415619Y-65984476D01*
X74453714Y-66174952D01*
X74453714Y-66317809D01*
X74415619Y-66508285D01*
X74377523Y-66603523D01*
X74301333Y-66698761D01*
X74187047Y-66746380D01*
X73996571Y-66746380D01*
X74758476Y-66460666D02*
X75139428Y-66460666D01*
X74682285Y-66746380D02*
X74948952Y-65746380D01*
X75215619Y-66746380D01*
X75755619Y-66698761D02*
X75869904Y-66746380D01*
X76060380Y-66746380D01*
X76136571Y-66698761D01*
X76174666Y-66651142D01*
X76212761Y-66555904D01*
X76212761Y-66460666D01*
X76174666Y-66365428D01*
X76136571Y-66317809D01*
X76060380Y-66270190D01*
X75908000Y-66222571D01*
X75831809Y-66174952D01*
X75793714Y-66127333D01*
X75755619Y-66032095D01*
X75755619Y-65936857D01*
X75793714Y-65841619D01*
X75831809Y-65794000D01*
X75908000Y-65746380D01*
X76098476Y-65746380D01*
X76212761Y-65794000D01*
X77012761Y-66651142D02*
X76974666Y-66698761D01*
X76860380Y-66746380D01*
X76784190Y-66746380D01*
X76669904Y-66698761D01*
X76593714Y-66603523D01*
X76555619Y-66508285D01*
X76517523Y-66317809D01*
X76517523Y-66174952D01*
X76555619Y-65984476D01*
X76593714Y-65889238D01*
X76669904Y-65794000D01*
X76784190Y-65746380D01*
X76860380Y-65746380D01*
X76974666Y-65794000D01*
X77012761Y-65841619D01*
X77736571Y-66746380D02*
X77355619Y-66746380D01*
X77355619Y-65746380D01*
D12*
G04 #@! TO.C,R13*
X76626000Y-84082000D02*
X76626000Y-85082000D01*
X75266000Y-85082000D02*
X75266000Y-84082000D01*
G04 #@! TO.C,Q9*
X79558000Y-99062000D02*
X78628000Y-99062000D01*
X76398000Y-99062000D02*
X77328000Y-99062000D01*
X76398000Y-99062000D02*
X76398000Y-101222000D01*
X79558000Y-99062000D02*
X79558000Y-100522000D01*
D11*
G04 #@! TO.C,U1*
X77448000Y-90248000D02*
X77448000Y-89548000D01*
X77448000Y-93748000D02*
X80948000Y-93748000D01*
X80948000Y-91748000D02*
X80948000Y-92148000D01*
X77448000Y-91748000D02*
X77448000Y-92148000D01*
X77448000Y-90248000D02*
X80948000Y-90248000D01*
D12*
G04 #@! TO.C,Q11*
X79050000Y-80774000D02*
X78120000Y-80774000D01*
X75890000Y-80774000D02*
X76820000Y-80774000D01*
X75890000Y-80774000D02*
X75890000Y-82934000D01*
X79050000Y-80774000D02*
X79050000Y-82234000D01*
G04 #@! TO.C,Q2*
X88702000Y-96014000D02*
X87772000Y-96014000D01*
X85542000Y-96014000D02*
X86472000Y-96014000D01*
X85542000Y-96014000D02*
X85542000Y-98174000D01*
X88702000Y-96014000D02*
X88702000Y-97474000D01*
G04 #@! TO.C,Q3*
X71880000Y-85908000D02*
X71880000Y-84978000D01*
X71880000Y-82748000D02*
X71880000Y-83678000D01*
X71880000Y-82748000D02*
X69720000Y-82748000D01*
X71880000Y-85908000D02*
X70420000Y-85908000D01*
G04 #@! TO.C,Q4*
X86616000Y-91892000D02*
X86616000Y-92822000D01*
X86616000Y-95052000D02*
X86616000Y-94122000D01*
X86616000Y-95052000D02*
X88776000Y-95052000D01*
X86616000Y-91892000D02*
X88076000Y-91892000D01*
G04 #@! TO.C,Q5*
X71880000Y-90988000D02*
X71880000Y-90058000D01*
X71880000Y-87828000D02*
X71880000Y-88758000D01*
X71880000Y-87828000D02*
X69720000Y-87828000D01*
X71880000Y-90988000D02*
X70420000Y-90988000D01*
G04 #@! TO.C,Q6*
X86616000Y-82748000D02*
X86616000Y-83678000D01*
X86616000Y-85908000D02*
X86616000Y-84978000D01*
X86616000Y-85908000D02*
X88776000Y-85908000D01*
X86616000Y-82748000D02*
X88076000Y-82748000D01*
G04 #@! TO.C,Q7*
X72642000Y-98354000D02*
X72642000Y-97424000D01*
X72642000Y-95194000D02*
X72642000Y-96124000D01*
X72642000Y-95194000D02*
X70482000Y-95194000D01*
X72642000Y-98354000D02*
X71182000Y-98354000D01*
G04 #@! TO.C,Q8*
X85542000Y-80516000D02*
X86472000Y-80516000D01*
X88702000Y-80516000D02*
X87772000Y-80516000D01*
X88702000Y-80516000D02*
X88702000Y-78356000D01*
X85542000Y-80516000D02*
X85542000Y-79056000D01*
G04 #@! TO.C,Q1*
X70048000Y-80516000D02*
X70978000Y-80516000D01*
X73208000Y-80516000D02*
X72278000Y-80516000D01*
X73208000Y-80516000D02*
X73208000Y-78356000D01*
X70048000Y-80516000D02*
X70048000Y-79056000D01*
G04 #@! TO.C,J4*
X75498000Y-101342500D02*
X75498000Y-98682500D01*
X72898000Y-101342500D02*
X75498000Y-101342500D01*
X72898000Y-98682500D02*
X75498000Y-98682500D01*
X72898000Y-101342500D02*
X72898000Y-98682500D01*
X71628000Y-101342500D02*
X70298000Y-101342500D01*
X70298000Y-101342500D02*
X70298000Y-100012500D01*
G04 #@! TO.C,J3*
X88198000Y-101342500D02*
X88198000Y-98682500D01*
X85598000Y-101342500D02*
X88198000Y-101342500D01*
X85598000Y-98682500D02*
X88198000Y-98682500D01*
X85598000Y-101342500D02*
X85598000Y-98682500D01*
X84328000Y-101342500D02*
X82998000Y-101342500D01*
X82998000Y-101342500D02*
X82998000Y-100012500D01*
G04 #@! TO.C,Q10*
X82606000Y-80774000D02*
X81676000Y-80774000D01*
X79446000Y-80774000D02*
X80376000Y-80774000D01*
X79446000Y-80774000D02*
X79446000Y-82934000D01*
X82606000Y-80774000D02*
X82606000Y-82234000D01*
G04 #@! TO.C,J1*
X72948800Y-65550400D02*
X88308800Y-65550400D01*
X88308800Y-65550400D02*
X88308800Y-62770400D01*
X88308800Y-62770400D02*
X72948800Y-62770400D01*
X72948800Y-62770400D02*
X72948800Y-65550400D01*
X71678800Y-65550400D02*
X70288800Y-65550400D01*
X70288800Y-65550400D02*
X70288800Y-64160400D01*
D11*
G04 #@! TO.C,U3*
X74527000Y-73445000D02*
X74752000Y-73445000D01*
X74527000Y-68795000D02*
X74852000Y-68795000D01*
X84477000Y-68795000D02*
X84152000Y-68795000D01*
X84477000Y-73445000D02*
X84152000Y-73445000D01*
X74527000Y-73445000D02*
X74527000Y-68795000D01*
X84477000Y-73445000D02*
X84477000Y-68795000D01*
X74752000Y-73445000D02*
X74752000Y-74520000D01*
D12*
G04 #@! TO.C,C1*
X70958000Y-70770000D02*
X70958000Y-71470000D01*
X69758000Y-71470000D02*
X69758000Y-70770000D01*
G04 #@! TO.C,C2*
X71282000Y-71470000D02*
X71282000Y-70770000D01*
X72482000Y-70770000D02*
X72482000Y-71470000D01*
G04 #@! TO.C,C3*
X82708000Y-88554000D02*
X83408000Y-88554000D01*
X83408000Y-89754000D02*
X82708000Y-89754000D01*
G04 #@! TO.C,R1*
X81960000Y-99322000D02*
X81960000Y-100322000D01*
X80600000Y-100322000D02*
X80600000Y-99322000D01*
G04 #@! TO.C,R2*
X85860000Y-67138000D02*
X86860000Y-67138000D01*
X86860000Y-68498000D02*
X85860000Y-68498000D01*
G04 #@! TO.C,R3*
X72144000Y-76282000D02*
X73144000Y-76282000D01*
X73144000Y-77642000D02*
X72144000Y-77642000D01*
G04 #@! TO.C,R4*
X84320000Y-98216000D02*
X83320000Y-98216000D01*
X83320000Y-96856000D02*
X84320000Y-96856000D01*
G04 #@! TO.C,R5*
X70784000Y-81034000D02*
X70784000Y-82034000D01*
X69424000Y-82034000D02*
X69424000Y-81034000D01*
G04 #@! TO.C,R6*
X88310000Y-89670000D02*
X88310000Y-90670000D01*
X86950000Y-90670000D02*
X86950000Y-89670000D01*
G04 #@! TO.C,R7*
X70112000Y-86188000D02*
X71112000Y-86188000D01*
X71112000Y-87548000D02*
X70112000Y-87548000D01*
G04 #@! TO.C,R8*
X88384000Y-87548000D02*
X87384000Y-87548000D01*
X87384000Y-86188000D02*
X88384000Y-86188000D01*
G04 #@! TO.C,R9*
X71620000Y-94660000D02*
X70620000Y-94660000D01*
X70620000Y-93300000D02*
X71620000Y-93300000D01*
G04 #@! TO.C,R10*
X88818000Y-76208000D02*
X88818000Y-77208000D01*
X87458000Y-77208000D02*
X87458000Y-76208000D01*
G04 #@! TO.C,R11*
X76192000Y-98216000D02*
X75192000Y-98216000D01*
X75192000Y-96856000D02*
X76192000Y-96856000D01*
G04 #@! TO.C,R12*
X81796000Y-83394000D02*
X82796000Y-83394000D01*
X82796000Y-84754000D02*
X81796000Y-84754000D01*
G04 #@! TO.C,R14*
X71038000Y-67814000D02*
X71038000Y-68814000D01*
X69678000Y-68814000D02*
X69678000Y-67814000D01*
G04 #@! TO.C,R15*
X74086000Y-70620000D02*
X74086000Y-71620000D01*
X72726000Y-71620000D02*
X72726000Y-70620000D01*
G04 #@! TO.C,R16*
X72816000Y-73414000D02*
X72816000Y-74414000D01*
X71456000Y-74414000D02*
X71456000Y-73414000D01*
G04 #@! TO.C,R17*
X69678000Y-74414000D02*
X69678000Y-73414000D01*
X71038000Y-73414000D02*
X71038000Y-74414000D01*
G04 #@! TO.C,R18*
X71202000Y-68814000D02*
X71202000Y-67814000D01*
X72562000Y-67814000D02*
X72562000Y-68814000D01*
G04 #@! TO.C,R19*
X74086000Y-67814000D02*
X74086000Y-68814000D01*
X72726000Y-68814000D02*
X72726000Y-67814000D01*
G04 #@! TO.C,U1*
D11*
X78638476Y-91400380D02*
X78638476Y-92209904D01*
X78676571Y-92305142D01*
X78714666Y-92352761D01*
X78790857Y-92400380D01*
X78943238Y-92400380D01*
X79019428Y-92352761D01*
X79057523Y-92305142D01*
X79095619Y-92209904D01*
X79095619Y-91400380D01*
X79895619Y-92400380D02*
X79438476Y-92400380D01*
X79667047Y-92400380D02*
X79667047Y-91400380D01*
X79590857Y-91543238D01*
X79514666Y-91638476D01*
X79438476Y-91686095D01*
G04 #@! TO.C,Q2*
X86399619Y-95072190D02*
X86352000Y-95148380D01*
X86256761Y-95224571D01*
X86113904Y-95338857D01*
X86066285Y-95415047D01*
X86066285Y-95491238D01*
X86304380Y-95453142D02*
X86256761Y-95529333D01*
X86161523Y-95605523D01*
X85971047Y-95643619D01*
X85637714Y-95643619D01*
X85447238Y-95605523D01*
X85352000Y-95529333D01*
X85304380Y-95453142D01*
X85304380Y-95300761D01*
X85352000Y-95224571D01*
X85447238Y-95148380D01*
X85637714Y-95110285D01*
X85971047Y-95110285D01*
X86161523Y-95148380D01*
X86256761Y-95224571D01*
X86304380Y-95300761D01*
X86304380Y-95453142D01*
X85399619Y-94805523D02*
X85352000Y-94767428D01*
X85304380Y-94691238D01*
X85304380Y-94500761D01*
X85352000Y-94424571D01*
X85399619Y-94386476D01*
X85494857Y-94348380D01*
X85590095Y-94348380D01*
X85732952Y-94386476D01*
X86304380Y-94843619D01*
X86304380Y-94348380D01*
G04 #@! TO.C,Q3*
X73583809Y-85129619D02*
X73507619Y-85082000D01*
X73431428Y-84986761D01*
X73317142Y-84843904D01*
X73240952Y-84796285D01*
X73164761Y-84796285D01*
X73202857Y-85034380D02*
X73126666Y-84986761D01*
X73050476Y-84891523D01*
X73012380Y-84701047D01*
X73012380Y-84367714D01*
X73050476Y-84177238D01*
X73126666Y-84082000D01*
X73202857Y-84034380D01*
X73355238Y-84034380D01*
X73431428Y-84082000D01*
X73507619Y-84177238D01*
X73545714Y-84367714D01*
X73545714Y-84701047D01*
X73507619Y-84891523D01*
X73431428Y-84986761D01*
X73355238Y-85034380D01*
X73202857Y-85034380D01*
X73812380Y-84034380D02*
X74307619Y-84034380D01*
X74040952Y-84415333D01*
X74155238Y-84415333D01*
X74231428Y-84462952D01*
X74269523Y-84510571D01*
X74307619Y-84605809D01*
X74307619Y-84843904D01*
X74269523Y-84939142D01*
X74231428Y-84986761D01*
X74155238Y-85034380D01*
X73926666Y-85034380D01*
X73850476Y-84986761D01*
X73812380Y-84939142D01*
G04 #@! TO.C,Q4*
X84759809Y-93765619D02*
X84683619Y-93718000D01*
X84607428Y-93622761D01*
X84493142Y-93479904D01*
X84416952Y-93432285D01*
X84340761Y-93432285D01*
X84378857Y-93670380D02*
X84302666Y-93622761D01*
X84226476Y-93527523D01*
X84188380Y-93337047D01*
X84188380Y-93003714D01*
X84226476Y-92813238D01*
X84302666Y-92718000D01*
X84378857Y-92670380D01*
X84531238Y-92670380D01*
X84607428Y-92718000D01*
X84683619Y-92813238D01*
X84721714Y-93003714D01*
X84721714Y-93337047D01*
X84683619Y-93527523D01*
X84607428Y-93622761D01*
X84531238Y-93670380D01*
X84378857Y-93670380D01*
X85407428Y-93003714D02*
X85407428Y-93670380D01*
X85216952Y-92622761D02*
X85026476Y-93337047D01*
X85521714Y-93337047D01*
G04 #@! TO.C,Q5*
X73583809Y-89701619D02*
X73507619Y-89654000D01*
X73431428Y-89558761D01*
X73317142Y-89415904D01*
X73240952Y-89368285D01*
X73164761Y-89368285D01*
X73202857Y-89606380D02*
X73126666Y-89558761D01*
X73050476Y-89463523D01*
X73012380Y-89273047D01*
X73012380Y-88939714D01*
X73050476Y-88749238D01*
X73126666Y-88654000D01*
X73202857Y-88606380D01*
X73355238Y-88606380D01*
X73431428Y-88654000D01*
X73507619Y-88749238D01*
X73545714Y-88939714D01*
X73545714Y-89273047D01*
X73507619Y-89463523D01*
X73431428Y-89558761D01*
X73355238Y-89606380D01*
X73202857Y-89606380D01*
X74269523Y-88606380D02*
X73888571Y-88606380D01*
X73850476Y-89082571D01*
X73888571Y-89034952D01*
X73964761Y-88987333D01*
X74155238Y-88987333D01*
X74231428Y-89034952D01*
X74269523Y-89082571D01*
X74307619Y-89177809D01*
X74307619Y-89415904D01*
X74269523Y-89511142D01*
X74231428Y-89558761D01*
X74155238Y-89606380D01*
X73964761Y-89606380D01*
X73888571Y-89558761D01*
X73850476Y-89511142D01*
G04 #@! TO.C,Q6*
X85013809Y-85129619D02*
X84937619Y-85082000D01*
X84861428Y-84986761D01*
X84747142Y-84843904D01*
X84670952Y-84796285D01*
X84594761Y-84796285D01*
X84632857Y-85034380D02*
X84556666Y-84986761D01*
X84480476Y-84891523D01*
X84442380Y-84701047D01*
X84442380Y-84367714D01*
X84480476Y-84177238D01*
X84556666Y-84082000D01*
X84632857Y-84034380D01*
X84785238Y-84034380D01*
X84861428Y-84082000D01*
X84937619Y-84177238D01*
X84975714Y-84367714D01*
X84975714Y-84701047D01*
X84937619Y-84891523D01*
X84861428Y-84986761D01*
X84785238Y-85034380D01*
X84632857Y-85034380D01*
X85661428Y-84034380D02*
X85509047Y-84034380D01*
X85432857Y-84082000D01*
X85394761Y-84129619D01*
X85318571Y-84272476D01*
X85280476Y-84462952D01*
X85280476Y-84843904D01*
X85318571Y-84939142D01*
X85356666Y-84986761D01*
X85432857Y-85034380D01*
X85585238Y-85034380D01*
X85661428Y-84986761D01*
X85699523Y-84939142D01*
X85737619Y-84843904D01*
X85737619Y-84605809D01*
X85699523Y-84510571D01*
X85661428Y-84462952D01*
X85585238Y-84415333D01*
X85432857Y-84415333D01*
X85356666Y-84462952D01*
X85318571Y-84510571D01*
X85280476Y-84605809D01*
G04 #@! TO.C,Q8*
X88939619Y-81610190D02*
X88892000Y-81686380D01*
X88796761Y-81762571D01*
X88653904Y-81876857D01*
X88606285Y-81953047D01*
X88606285Y-82029238D01*
X88844380Y-81991142D02*
X88796761Y-82067333D01*
X88701523Y-82143523D01*
X88511047Y-82181619D01*
X88177714Y-82181619D01*
X87987238Y-82143523D01*
X87892000Y-82067333D01*
X87844380Y-81991142D01*
X87844380Y-81838761D01*
X87892000Y-81762571D01*
X87987238Y-81686380D01*
X88177714Y-81648285D01*
X88511047Y-81648285D01*
X88701523Y-81686380D01*
X88796761Y-81762571D01*
X88844380Y-81838761D01*
X88844380Y-81991142D01*
X88272952Y-81191142D02*
X88225333Y-81267333D01*
X88177714Y-81305428D01*
X88082476Y-81343523D01*
X88034857Y-81343523D01*
X87939619Y-81305428D01*
X87892000Y-81267333D01*
X87844380Y-81191142D01*
X87844380Y-81038761D01*
X87892000Y-80962571D01*
X87939619Y-80924476D01*
X88034857Y-80886380D01*
X88082476Y-80886380D01*
X88177714Y-80924476D01*
X88225333Y-80962571D01*
X88272952Y-81038761D01*
X88272952Y-81191142D01*
X88320571Y-81267333D01*
X88368190Y-81305428D01*
X88463428Y-81343523D01*
X88653904Y-81343523D01*
X88749142Y-81305428D01*
X88796761Y-81267333D01*
X88844380Y-81191142D01*
X88844380Y-81038761D01*
X88796761Y-80962571D01*
X88749142Y-80924476D01*
X88653904Y-80886380D01*
X88463428Y-80886380D01*
X88368190Y-80924476D01*
X88320571Y-80962571D01*
X88272952Y-81038761D01*
G04 #@! TO.C,U2*
D13*
X75469714Y-77104761D02*
X74898285Y-77104761D01*
X75184000Y-77104761D02*
X75184000Y-75104761D01*
X75088761Y-75390476D01*
X74993523Y-75580952D01*
X74898285Y-75676190D01*
G04 #@! TO.C,U3*
D11*
X73366380Y-75031523D02*
X74175904Y-75031523D01*
X74271142Y-74993428D01*
X74318761Y-74955333D01*
X74366380Y-74879142D01*
X74366380Y-74726761D01*
X74318761Y-74650571D01*
X74271142Y-74612476D01*
X74175904Y-74574380D01*
X73366380Y-74574380D01*
X73366380Y-74269619D02*
X73366380Y-73774380D01*
X73747333Y-74041047D01*
X73747333Y-73926761D01*
X73794952Y-73850571D01*
X73842571Y-73812476D01*
X73937809Y-73774380D01*
X74175904Y-73774380D01*
X74271142Y-73812476D01*
X74318761Y-73850571D01*
X74366380Y-73926761D01*
X74366380Y-74155333D01*
X74318761Y-74231523D01*
X74271142Y-74269619D01*
G04 #@! TO.C,C3*
X82891333Y-88011142D02*
X82843714Y-88058761D01*
X82700857Y-88106380D01*
X82605619Y-88106380D01*
X82462761Y-88058761D01*
X82367523Y-87963523D01*
X82319904Y-87868285D01*
X82272285Y-87677809D01*
X82272285Y-87534952D01*
X82319904Y-87344476D01*
X82367523Y-87249238D01*
X82462761Y-87154000D01*
X82605619Y-87106380D01*
X82700857Y-87106380D01*
X82843714Y-87154000D01*
X82891333Y-87201619D01*
X83224666Y-87106380D02*
X83843714Y-87106380D01*
X83510380Y-87487333D01*
X83653238Y-87487333D01*
X83748476Y-87534952D01*
X83796095Y-87582571D01*
X83843714Y-87677809D01*
X83843714Y-87915904D01*
X83796095Y-88011142D01*
X83748476Y-88058761D01*
X83653238Y-88106380D01*
X83367523Y-88106380D01*
X83272285Y-88058761D01*
X83224666Y-88011142D01*
G04 #@! TO.C,R2*
X86193333Y-69794380D02*
X85860000Y-69318190D01*
X85621904Y-69794380D02*
X85621904Y-68794380D01*
X86002857Y-68794380D01*
X86098095Y-68842000D01*
X86145714Y-68889619D01*
X86193333Y-68984857D01*
X86193333Y-69127714D01*
X86145714Y-69222952D01*
X86098095Y-69270571D01*
X86002857Y-69318190D01*
X85621904Y-69318190D01*
X86574285Y-68889619D02*
X86621904Y-68842000D01*
X86717142Y-68794380D01*
X86955238Y-68794380D01*
X87050476Y-68842000D01*
X87098095Y-68889619D01*
X87145714Y-68984857D01*
X87145714Y-69080095D01*
X87098095Y-69222952D01*
X86526666Y-69794380D01*
X87145714Y-69794380D01*
G04 #@! TO.C,R6*
X86632380Y-90336666D02*
X86156190Y-90670000D01*
X86632380Y-90908095D02*
X85632380Y-90908095D01*
X85632380Y-90527142D01*
X85680000Y-90431904D01*
X85727619Y-90384285D01*
X85822857Y-90336666D01*
X85965714Y-90336666D01*
X86060952Y-90384285D01*
X86108571Y-90431904D01*
X86156190Y-90527142D01*
X86156190Y-90908095D01*
X85632380Y-89479523D02*
X85632380Y-89670000D01*
X85680000Y-89765238D01*
X85727619Y-89812857D01*
X85870476Y-89908095D01*
X86060952Y-89955714D01*
X86441904Y-89955714D01*
X86537142Y-89908095D01*
X86584761Y-89860476D01*
X86632380Y-89765238D01*
X86632380Y-89574761D01*
X86584761Y-89479523D01*
X86537142Y-89431904D01*
X86441904Y-89384285D01*
X86203809Y-89384285D01*
X86108571Y-89431904D01*
X86060952Y-89479523D01*
X86013333Y-89574761D01*
X86013333Y-89765238D01*
X86060952Y-89860476D01*
X86108571Y-89908095D01*
X86203809Y-89955714D01*
G04 #@! TO.C,R8*
X87717333Y-88770380D02*
X87384000Y-88294190D01*
X87145904Y-88770380D02*
X87145904Y-87770380D01*
X87526857Y-87770380D01*
X87622095Y-87818000D01*
X87669714Y-87865619D01*
X87717333Y-87960857D01*
X87717333Y-88103714D01*
X87669714Y-88198952D01*
X87622095Y-88246571D01*
X87526857Y-88294190D01*
X87145904Y-88294190D01*
X88288761Y-88198952D02*
X88193523Y-88151333D01*
X88145904Y-88103714D01*
X88098285Y-88008476D01*
X88098285Y-87960857D01*
X88145904Y-87865619D01*
X88193523Y-87818000D01*
X88288761Y-87770380D01*
X88479238Y-87770380D01*
X88574476Y-87818000D01*
X88622095Y-87865619D01*
X88669714Y-87960857D01*
X88669714Y-88008476D01*
X88622095Y-88103714D01*
X88574476Y-88151333D01*
X88479238Y-88198952D01*
X88288761Y-88198952D01*
X88193523Y-88246571D01*
X88145904Y-88294190D01*
X88098285Y-88389428D01*
X88098285Y-88579904D01*
X88145904Y-88675142D01*
X88193523Y-88722761D01*
X88288761Y-88770380D01*
X88479238Y-88770380D01*
X88574476Y-88722761D01*
X88622095Y-88675142D01*
X88669714Y-88579904D01*
X88669714Y-88389428D01*
X88622095Y-88294190D01*
X88574476Y-88246571D01*
X88479238Y-88198952D01*
G04 #@! TO.C,R9*
X70953333Y-92982380D02*
X70620000Y-92506190D01*
X70381904Y-92982380D02*
X70381904Y-91982380D01*
X70762857Y-91982380D01*
X70858095Y-92030000D01*
X70905714Y-92077619D01*
X70953333Y-92172857D01*
X70953333Y-92315714D01*
X70905714Y-92410952D01*
X70858095Y-92458571D01*
X70762857Y-92506190D01*
X70381904Y-92506190D01*
X71429523Y-92982380D02*
X71620000Y-92982380D01*
X71715238Y-92934761D01*
X71762857Y-92887142D01*
X71858095Y-92744285D01*
X71905714Y-92553809D01*
X71905714Y-92172857D01*
X71858095Y-92077619D01*
X71810476Y-92030000D01*
X71715238Y-91982380D01*
X71524761Y-91982380D01*
X71429523Y-92030000D01*
X71381904Y-92077619D01*
X71334285Y-92172857D01*
X71334285Y-92410952D01*
X71381904Y-92506190D01*
X71429523Y-92553809D01*
X71524761Y-92601428D01*
X71715238Y-92601428D01*
X71810476Y-92553809D01*
X71858095Y-92506190D01*
X71905714Y-92410952D01*
G04 #@! TD*
M02*
