  0
SECTION
  2
HEADER
  9
$ANGBASE
  50
0.0
  9
$ANGDIR
  70
  1
  9
$MEASUREMENT
  70
0
  0
ENDSEC
  0
SECTION
  2
TABLES
  0
TABLE
  2
LTYPE
  70
4
  0
LTYPE
  5
40F
  2
CONTINUOUS
  70
0
  3
Solid line
  72
65
  73
0
  40
0.0
  0
LTYPE
  5
410
  2
DASHDOT
 70
0
  3
Dash Dot ____ _ ____ _
 72
65
 73
4
 40
2.0
 49
1.25
 49
-0.25
 49
0.25
 49
-0.25
  0
LTYPE
  5
411
  2
DASHED
 70
0
  3
Dashed __ __ __ __ __
 72
65
 73
2
 40
0.75
 49
0.5
 49
-0.25
  0
LTYPE
  5
43B
  2
DOTTED
 70
0
  3
Dotted .  .  .  .
 72
65
 73
2
 40
0.2
 49
0.0
 49
-0.2
  0
ENDTAB
  0
TABLE
  2
STYLE
  70
4
  0
STYLE
  2
KICAD
  70
0
  40
0
  41
1
  42
1
  50
0
  71
0
  3
isocp.shx
  0
STYLE
  2
KICADB
  70
0
  40
0
  41
1
  42
1
  50
0
  71
0
  3
isocp.shx
  0
STYLE
  2
KICADI
  70
0
  40
0
  41
1
  42
1
  50
15
  71
0
  3
isocp.shx
  0
STYLE
  2
KICADBI
  70
0
  40
0
  41
1
  42
1
  50
15
  71
0
  3
isocp.shx
  0
ENDTAB
  0
TABLE
  2
LAYER
  70
30
  0
LAYER
  2
BLACK
  70
0
  62
7
  6
CONTINUOUS
  0
LAYER
  2
GRAY1
  70
0
  62
251
  6
CONTINUOUS
  0
LAYER
  2
GRAY2
  70
0
  62
8
  6
CONTINUOUS
  0
LAYER
  2
GRAY3
  70
0
  62
9
  6
CONTINUOUS
  0
LAYER
  2
WHITE
  70
0
  62
7
  6
CONTINUOUS
  0
LAYER
  2
LYELLOW
  70
0
  62
51
  6
CONTINUOUS
  0
LAYER
  2
BLUE1
  70
0
  62
178
  6
CONTINUOUS
  0
LAYER
  2
GREEN1
  70
0
  62
98
  6
CONTINUOUS
  0
LAYER
  2
CYAN1
  70
0
  62
138
  6
CONTINUOUS
  0
LAYER
  2
RED1
  70
0
  62
18
  6
CONTINUOUS
  0
LAYER
  2
MAGENTA1
  70
0
  62
228
  6
CONTINUOUS
  0
LAYER
  2
BROWN1
  70
0
  62
58
  6
CONTINUOUS
  0
LAYER
  2
BLUE2
  70
0
  62
5
  6
CONTINUOUS
  0
LAYER
  2
GREEN2
  70
0
  62
3
  6
CONTINUOUS
  0
LAYER
  2
CYAN2
  70
0
  62
4
  6
CONTINUOUS
  0
LAYER
  2
RED2
  70
0
  62
1
  6
CONTINUOUS
  0
LAYER
  2
MAGENTA2
  70
0
  62
6
  6
CONTINUOUS
  0
LAYER
  2
BROWN2
  70
0
  62
54
  6
CONTINUOUS
  0
LAYER
  2
BLUE3
  70
0
  62
171
  6
CONTINUOUS
  0
LAYER
  2
GREEN3
  70
0
  62
91
  6
CONTINUOUS
  0
LAYER
  2
CYAN3
  70
0
  62
131
  6
CONTINUOUS
  0
LAYER
  2
RED3
  70
0
  62
11
  6
CONTINUOUS
  0
LAYER
  2
MAGENTA3
  70
0
  62
221
  6
CONTINUOUS
  0
LAYER
  2
YELLOW3
  70
0
  62
2
  6
CONTINUOUS
  0
LAYER
  2
BLUE4
  70
0
  62
5
  6
CONTINUOUS
  0
LAYER
  2
GREEN4
  70
0
  62
3
  6
CONTINUOUS
  0
LAYER
  2
CYAN4
  70
0
  62
4
  6
CONTINUOUS
  0
LAYER
  2
RED4
  70
0
  62
1
  6
CONTINUOUS
  0
LAYER
  2
MAGENTA4
  70
0
  62
6
  6
CONTINUOUS
  0
LAYER
  2
YELLOW4
  70
0
  62
2
  6
CONTINUOUS
  0
ENDTAB
  0
ENDSEC
  0
SECTION
  2
ENTITIES
0
LINE
8
BLACK
6
CONTINUOUS
10
77.428
20
-101.272
11
76.628
21
-101.272
0
LINE
8
BLACK
6
CONTINUOUS
10
76.628
20
-101.272
11
76.628
21
-100.372
0
LINE
8
BLACK
6
CONTINUOUS
10
76.628
20
-100.372
11
77.428
21
-100.372
0
LINE
8
BLACK
6
CONTINUOUS
10
77.428
20
-100.372
11
77.428
21
-101.272
0
LINE
8
BLACK
6
CONTINUOUS
10
79.328
20
-101.272
11
78.528
21
-101.272
0
LINE
8
BLACK
6
CONTINUOUS
10
78.528
20
-101.272
11
78.528
21
-100.372
0
LINE
8
BLACK
6
CONTINUOUS
10
78.528
20
-100.372
11
79.328
21
-100.372
0
LINE
8
BLACK
6
CONTINUOUS
10
79.328
20
-100.372
11
79.328
21
-101.272
0
LINE
8
BLACK
6
CONTINUOUS
10
81.73
20
-100.822
11
80.83
21
-100.822
0
LINE
8
BLACK
6
CONTINUOUS
10
80.83
20
-100.822
11
80.83
21
-100.322
0
LINE
8
BLACK
6
CONTINUOUS
10
80.83
20
-100.322
11
81.73
21
-100.322
0
LINE
8
BLACK
6
CONTINUOUS
10
81.73
20
-100.322
11
81.73
21
-100.822
0
LINE
8
BLACK
6
CONTINUOUS
10
81.73
20
-99.322
11
80.83
21
-99.322
0
LINE
8
BLACK
6
CONTINUOUS
10
80.83
20
-99.322
11
80.83
21
-98.822
0
LINE
8
BLACK
6
CONTINUOUS
10
80.83
20
-98.822
11
81.73
21
-98.822
0
LINE
8
BLACK
6
CONTINUOUS
10
81.73
20
-98.822
11
81.73
21
-99.322
0
LINE
8
BLACK
6
CONTINUOUS
10
78.378
20
-99.272
11
77.578
21
-99.272
0
LINE
8
BLACK
6
CONTINUOUS
10
77.578
20
-99.272
11
77.578
21
-98.372
0
LINE
8
BLACK
6
CONTINUOUS
10
77.578
20
-98.372
11
78.378
21
-98.372
0
LINE
8
BLACK
6
CONTINUOUS
10
78.378
20
-98.372
11
78.378
21
-99.272
0
LINE
8
BLACK
6
CONTINUOUS
10
86.572
20
-98.224
11
85.772
21
-98.224
0
LINE
8
BLACK
6
CONTINUOUS
10
85.772
20
-98.224
11
85.772
21
-97.324
0
LINE
8
BLACK
6
CONTINUOUS
10
85.772
20
-97.324
11
86.572
21
-97.324
0
LINE
8
BLACK
6
CONTINUOUS
10
86.572
20
-97.324
11
86.572
21
-98.224
0
LINE
8
BLACK
6
CONTINUOUS
10
88.472
20
-98.224
11
87.672
21
-98.224
0
LINE
8
BLACK
6
CONTINUOUS
10
87.672
20
-98.224
11
87.672
21
-97.324
0
LINE
8
BLACK
6
CONTINUOUS
10
87.672
20
-97.324
11
88.472
21
-97.324
0
LINE
8
BLACK
6
CONTINUOUS
10
88.472
20
-97.324
11
88.472
21
-98.224
0
LINE
8
BLACK
6
CONTINUOUS
10
71.332
20
-98.124
11
70.432
21
-98.124
0
LINE
8
BLACK
6
CONTINUOUS
10
70.432
20
-98.124
11
70.432
21
-97.324
0
LINE
8
BLACK
6
CONTINUOUS
10
70.432
20
-97.324
11
71.332
21
-97.324
0
LINE
8
BLACK
6
CONTINUOUS
10
71.332
20
-97.324
11
71.332
21
-98.124
0
LINE
8
BLACK
6
CONTINUOUS
10
84.82
20
-97.986
11
84.32
21
-97.986
0
LINE
8
BLACK
6
CONTINUOUS
10
84.32
20
-97.986
11
84.32
21
-97.086
0
LINE
8
BLACK
6
CONTINUOUS
10
84.32
20
-97.086
11
84.82
21
-97.086
0
LINE
8
BLACK
6
CONTINUOUS
10
84.82
20
-97.086
11
84.82
21
-97.986
0
LINE
8
BLACK
6
CONTINUOUS
10
83.32
20
-97.986
11
82.82
21
-97.986
0
LINE
8
BLACK
6
CONTINUOUS
10
82.82
20
-97.986
11
82.82
21
-97.086
0
LINE
8
BLACK
6
CONTINUOUS
10
82.82
20
-97.086
11
83.32
21
-97.086
0
LINE
8
BLACK
6
CONTINUOUS
10
83.32
20
-97.086
11
83.32
21
-97.986
0
LINE
8
BLACK
6
CONTINUOUS
10
76.692
20
-97.986
11
76.192
21
-97.986
0
LINE
8
BLACK
6
CONTINUOUS
10
76.192
20
-97.986
11
76.192
21
-97.086
0
LINE
8
BLACK
6
CONTINUOUS
10
76.192
20
-97.086
11
76.692
21
-97.086
0
LINE
8
BLACK
6
CONTINUOUS
10
76.692
20
-97.086
11
76.692
21
-97.986
0
LINE
8
BLACK
6
CONTINUOUS
10
75.192
20
-97.986
11
74.692
21
-97.986
0
LINE
8
BLACK
6
CONTINUOUS
10
74.692
20
-97.986
11
74.692
21
-97.086
0
LINE
8
BLACK
6
CONTINUOUS
10
74.692
20
-97.086
11
75.192
21
-97.086
0
LINE
8
BLACK
6
CONTINUOUS
10
75.192
20
-97.086
11
75.192
21
-97.986
0
LINE
8
BLACK
6
CONTINUOUS
10
73.332
20
-97.174
11
72.432
21
-97.174
0
LINE
8
BLACK
6
CONTINUOUS
10
72.432
20
-97.174
11
72.432
21
-96.374
0
LINE
8
BLACK
6
CONTINUOUS
10
72.432
20
-96.374
11
73.332
21
-96.374
0
LINE
8
BLACK
6
CONTINUOUS
10
73.332
20
-96.374
11
73.332
21
-97.174
0
LINE
8
BLACK
6
CONTINUOUS
10
87.522
20
-96.224
11
86.722
21
-96.224
0
LINE
8
BLACK
6
CONTINUOUS
10
86.722
20
-96.224
11
86.722
21
-95.324
0
LINE
8
BLACK
6
CONTINUOUS
10
86.722
20
-95.324
11
87.522
21
-95.324
0
LINE
8
BLACK
6
CONTINUOUS
10
87.522
20
-95.324
11
87.522
21
-96.224
0
LINE
8
BLACK
6
CONTINUOUS
10
71.332
20
-96.224
11
70.432
21
-96.224
0
LINE
8
BLACK
6
CONTINUOUS
10
70.432
20
-96.224
11
70.432
21
-95.424
0
LINE
8
BLACK
6
CONTINUOUS
10
70.432
20
-95.424
11
71.332
21
-95.424
0
LINE
8
BLACK
6
CONTINUOUS
10
71.332
20
-95.424
11
71.332
21
-96.224
0
LINE
8
BLACK
6
CONTINUOUS
10
88.826
20
-94.822
11
87.926
21
-94.822
0
LINE
8
BLACK
6
CONTINUOUS
10
87.926
20
-94.822
11
87.926
21
-94.022
0
LINE
8
BLACK
6
CONTINUOUS
10
87.926
20
-94.022
11
88.826
21
-94.022
0
LINE
8
BLACK
6
CONTINUOUS
10
88.826
20
-94.022
11
88.826
21
-94.822
0
LINE
8
BLACK
6
CONTINUOUS
10
70.62
20
-94.43
11
70.12
21
-94.43
0
LINE
8
BLACK
6
CONTINUOUS
10
70.12
20
-94.43
11
70.12
21
-93.53
0
LINE
8
BLACK
6
CONTINUOUS
10
70.12
20
-93.53
11
70.62
21
-93.53
0
LINE
8
BLACK
6
CONTINUOUS
10
70.62
20
-93.53
11
70.62
21
-94.43
0
LINE
8
BLACK
6
CONTINUOUS
10
72.12
20
-94.43
11
71.62
21
-94.43
0
LINE
8
BLACK
6
CONTINUOUS
10
71.62
20
-94.43
11
71.62
21
-93.53
0
LINE
8
BLACK
6
CONTINUOUS
10
71.62
20
-93.53
11
72.12
21
-93.53
0
LINE
8
BLACK
6
CONTINUOUS
10
72.12
20
-93.53
11
72.12
21
-94.43
0
LINE
8
BLACK
6
CONTINUOUS
10
86.826
20
-93.872
11
85.926
21
-93.872
0
LINE
8
BLACK
6
CONTINUOUS
10
85.926
20
-93.872
11
85.926
21
-93.072
0
LINE
8
BLACK
6
CONTINUOUS
10
85.926
20
-93.072
11
86.826
21
-93.072
0
LINE
8
BLACK
6
CONTINUOUS
10
86.826
20
-93.072
11
86.826
21
-93.872
0
LINE
8
BLACK
6
CONTINUOUS
10
78.348
20
-93.248
11
75.848
21
-93.248
0
LINE
8
BLACK
6
CONTINUOUS
10
75.848
20
-93.248
11
75.848
21
-92.398
0
LINE
8
BLACK
6
CONTINUOUS
10
75.848
20
-92.398
11
78.348
21
-92.398
0
LINE
8
BLACK
6
CONTINUOUS
10
78.348
20
-92.398
11
78.348
21
-93.248
0
LINE
8
BLACK
6
CONTINUOUS
10
82.648
20
-93.248
11
80.148
21
-93.248
0
LINE
8
BLACK
6
CONTINUOUS
10
80.148
20
-93.248
11
80.148
21
-92.398
0
LINE
8
BLACK
6
CONTINUOUS
10
80.148
20
-92.398
11
82.648
21
-92.398
0
LINE
8
BLACK
6
CONTINUOUS
10
82.648
20
-92.398
11
82.648
21
-93.248
0
LINE
8
BLACK
6
CONTINUOUS
10
88.826
20
-92.922
11
87.926
21
-92.922
0
LINE
8
BLACK
6
CONTINUOUS
10
87.926
20
-92.922
11
87.926
21
-92.122
0
LINE
8
BLACK
6
CONTINUOUS
10
87.926
20
-92.122
11
88.826
21
-92.122
0
LINE
8
BLACK
6
CONTINUOUS
10
88.826
20
-92.122
11
88.826
21
-92.922
0
LINE
8
BLACK
6
CONTINUOUS
10
78.348
20
-91.498
11
75.848
21
-91.498
0
LINE
8
BLACK
6
CONTINUOUS
10
75.848
20
-91.498
11
75.848
21
-90.648
0
LINE
8
BLACK
6
CONTINUOUS
10
75.848
20
-90.648
11
78.348
21
-90.648
0
LINE
8
BLACK
6
CONTINUOUS
10
78.348
20
-90.648
11
78.348
21
-91.498
0
LINE
8
BLACK
6
CONTINUOUS
10
82.648
20
-91.498
11
80.148
21
-91.498
0
LINE
8
BLACK
6
CONTINUOUS
10
80.148
20
-91.498
11
80.148
21
-90.648
0
LINE
8
BLACK
6
CONTINUOUS
10
80.148
20
-90.648
11
82.648
21
-90.648
0
LINE
8
BLACK
6
CONTINUOUS
10
82.648
20
-90.648
11
82.648
21
-91.498
0
LINE
8
BLACK
6
CONTINUOUS
10
88.08
20
-91.17
11
87.18
21
-91.17
0
LINE
8
BLACK
6
CONTINUOUS
10
87.18
20
-91.17
11
87.18
21
-90.67
0
LINE
8
BLACK
6
CONTINUOUS
10
87.18
20
-90.67
11
88.08
21
-90.67
0
LINE
8
BLACK
6
CONTINUOUS
10
88.08
20
-90.67
11
88.08
21
-91.17
0
LINE
8
BLACK
6
CONTINUOUS
10
70.57
20
-90.758
11
69.67
21
-90.758
0
LINE
8
BLACK
6
CONTINUOUS
10
69.67
20
-90.758
11
69.67
21
-89.958
0
LINE
8
BLACK
6
CONTINUOUS
10
69.67
20
-89.958
11
70.57
21
-89.958
0
LINE
8
BLACK
6
CONTINUOUS
10
70.57
20
-89.958
11
70.57
21
-90.758
0
LINE
8
BLACK
6
CONTINUOUS
10
72.57
20
-89.808
11
71.67
21
-89.808
0
LINE
8
BLACK
6
CONTINUOUS
10
71.67
20
-89.808
11
71.67
21
-89.008
0
LINE
8
BLACK
6
CONTINUOUS
10
71.67
20
-89.008
11
72.57
21
-89.008
0
LINE
8
BLACK
6
CONTINUOUS
10
72.57
20
-89.008
11
72.57
21
-89.808
0
LINE
8
BLACK
6
CONTINUOUS
10
88.08
20
-89.67
11
87.18
21
-89.67
0
LINE
8
BLACK
6
CONTINUOUS
10
87.18
20
-89.67
11
87.18
21
-89.17
0
LINE
8
BLACK
6
CONTINUOUS
10
87.18
20
-89.17
11
88.08
21
-89.17
0
LINE
8
BLACK
6
CONTINUOUS
10
88.08
20
-89.17
11
88.08
21
-89.67
0
LINE
8
BLACK
6
CONTINUOUS
10
84.208
20
-89.529
11
83.408
21
-89.529
0
LINE
8
BLACK
6
CONTINUOUS
10
83.408
20
-89.529
11
83.408
21
-88.779
0
LINE
8
BLACK
6
CONTINUOUS
10
83.408
20
-88.779
11
84.208
21
-88.779
0
LINE
8
BLACK
6
CONTINUOUS
10
84.208
20
-88.779
11
84.208
21
-89.529
0
LINE
8
BLACK
6
CONTINUOUS
10
82.708
20
-89.529
11
81.908
21
-89.529
0
LINE
8
BLACK
6
CONTINUOUS
10
81.908
20
-89.529
11
81.908
21
-88.779
0
LINE
8
BLACK
6
CONTINUOUS
10
81.908
20
-88.779
11
82.708
21
-88.779
0
LINE
8
BLACK
6
CONTINUOUS
10
82.708
20
-88.779
11
82.708
21
-89.529
0
LINE
8
BLACK
6
CONTINUOUS
10
70.57
20
-88.858
11
69.67
21
-88.858
0
LINE
8
BLACK
6
CONTINUOUS
10
69.67
20
-88.858
11
69.67
21
-88.058
0
LINE
8
BLACK
6
CONTINUOUS
10
69.67
20
-88.058
11
70.57
21
-88.058
0
LINE
8
BLACK
6
CONTINUOUS
10
70.57
20
-88.058
11
70.57
21
-88.858
0
LINE
8
BLACK
6
CONTINUOUS
10
71.612
20
-87.318
11
71.112
21
-87.318
0
LINE
8
BLACK
6
CONTINUOUS
10
71.112
20
-87.318
11
71.112
21
-86.418
0
LINE
8
BLACK
6
CONTINUOUS
10
71.112
20
-86.418
11
71.612
21
-86.418
0
LINE
8
BLACK
6
CONTINUOUS
10
71.612
20
-86.418
11
71.612
21
-87.318
0
LINE
8
BLACK
6
CONTINUOUS
10
70.112
20
-87.318
11
69.612
21
-87.318
0
LINE
8
BLACK
6
CONTINUOUS
10
69.612
20
-87.318
11
69.612
21
-86.418
0
LINE
8
BLACK
6
CONTINUOUS
10
69.612
20
-86.418
11
70.112
21
-86.418
0
LINE
8
BLACK
6
CONTINUOUS
10
70.112
20
-86.418
11
70.112
21
-87.318
0
LINE
8
BLACK
6
CONTINUOUS
10
87.384
20
-87.318
11
86.884
21
-87.318
0
LINE
8
BLACK
6
CONTINUOUS
10
86.884
20
-87.318
11
86.884
21
-86.418
0
LINE
8
BLACK
6
CONTINUOUS
10
86.884
20
-86.418
11
87.384
21
-86.418
0
LINE
8
BLACK
6
CONTINUOUS
10
87.384
20
-86.418
11
87.384
21
-87.318
0
LINE
8
BLACK
6
CONTINUOUS
10
88.884
20
-87.318
11
88.384
21
-87.318
0
LINE
8
BLACK
6
CONTINUOUS
10
88.384
20
-87.318
11
88.384
21
-86.418
0
LINE
8
BLACK
6
CONTINUOUS
10
88.384
20
-86.418
11
88.884
21
-86.418
0
LINE
8
BLACK
6
CONTINUOUS
10
88.884
20
-86.418
11
88.884
21
-87.318
0
LINE
8
BLACK
6
CONTINUOUS
10
88.826
20
-85.678
11
87.926
21
-85.678
0
LINE
8
BLACK
6
CONTINUOUS
10
87.926
20
-85.678
11
87.926
21
-84.878
0
LINE
8
BLACK
6
CONTINUOUS
10
87.926
20
-84.878
11
88.826
21
-84.878
0
LINE
8
BLACK
6
CONTINUOUS
10
88.826
20
-84.878
11
88.826
21
-85.678
0
LINE
8
BLACK
6
CONTINUOUS
10
70.57
20
-85.678
11
69.67
21
-85.678
0
LINE
8
BLACK
6
CONTINUOUS
10
69.67
20
-85.678
11
69.67
21
-84.878
0
LINE
8
BLACK
6
CONTINUOUS
10
69.67
20
-84.878
11
70.57
21
-84.878
0
LINE
8
BLACK
6
CONTINUOUS
10
70.57
20
-84.878
11
70.57
21
-85.678
0
LINE
8
BLACK
6
CONTINUOUS
10
76.396
20
-85.582
11
75.496
21
-85.582
0
LINE
8
BLACK
6
CONTINUOUS
10
75.496
20
-85.582
11
75.496
21
-85.082
0
LINE
8
BLACK
6
CONTINUOUS
10
75.496
20
-85.082
11
76.396
21
-85.082
0
LINE
8
BLACK
6
CONTINUOUS
10
76.396
20
-85.082
11
76.396
21
-85.582
0
LINE
8
BLACK
6
CONTINUOUS
10
86.826
20
-84.728
11
85.926
21
-84.728
0
LINE
8
BLACK
6
CONTINUOUS
10
85.926
20
-84.728
11
85.926
21
-83.928
0
LINE
8
BLACK
6
CONTINUOUS
10
85.926
20
-83.928
11
86.826
21
-83.928
0
LINE
8
BLACK
6
CONTINUOUS
10
86.826
20
-83.928
11
86.826
21
-84.728
0
LINE
8
BLACK
6
CONTINUOUS
10
72.57
20
-84.728
11
71.67
21
-84.728
0
LINE
8
BLACK
6
CONTINUOUS
10
71.67
20
-84.728
11
71.67
21
-83.928
0
LINE
8
BLACK
6
CONTINUOUS
10
71.67
20
-83.928
11
72.57
21
-83.928
0
LINE
8
BLACK
6
CONTINUOUS
10
72.57
20
-83.928
11
72.57
21
-84.728
0
LINE
8
BLACK
6
CONTINUOUS
10
83.296
20
-84.524
11
82.796
21
-84.524
0
LINE
8
BLACK
6
CONTINUOUS
10
82.796
20
-84.524
11
82.796
21
-83.624
0
LINE
8
BLACK
6
CONTINUOUS
10
82.796
20
-83.624
11
83.296
21
-83.624
0
LINE
8
BLACK
6
CONTINUOUS
10
83.296
20
-83.624
11
83.296
21
-84.524
0
LINE
8
BLACK
6
CONTINUOUS
10
81.796
20
-84.524
11
81.296
21
-84.524
0
LINE
8
BLACK
6
CONTINUOUS
10
81.296
20
-84.524
11
81.296
21
-83.624
0
LINE
8
BLACK
6
CONTINUOUS
10
81.296
20
-83.624
11
81.796
21
-83.624
0
LINE
8
BLACK
6
CONTINUOUS
10
81.796
20
-83.624
11
81.796
21
-84.524
0
LINE
8
BLACK
6
CONTINUOUS
10
76.396
20
-84.082
11
75.496
21
-84.082
0
LINE
8
BLACK
6
CONTINUOUS
10
75.496
20
-84.082
11
75.496
21
-83.582
0
LINE
8
BLACK
6
CONTINUOUS
10
75.496
20
-83.582
11
76.396
21
-83.582
0
LINE
8
BLACK
6
CONTINUOUS
10
76.396
20
-83.582
11
76.396
21
-84.082
0
LINE
8
BLACK
6
CONTINUOUS
10
88.826
20
-83.778
11
87.926
21
-83.778
0
LINE
8
BLACK
6
CONTINUOUS
10
87.926
20
-83.778
11
87.926
21
-82.978
0
LINE
8
BLACK
6
CONTINUOUS
10
87.926
20
-82.978
11
88.826
21
-82.978
0
LINE
8
BLACK
6
CONTINUOUS
10
88.826
20
-82.978
11
88.826
21
-83.778
0
LINE
8
BLACK
6
CONTINUOUS
10
70.57
20
-83.778
11
69.67
21
-83.778
0
LINE
8
BLACK
6
CONTINUOUS
10
69.67
20
-83.778
11
69.67
21
-82.978
0
LINE
8
BLACK
6
CONTINUOUS
10
69.67
20
-82.978
11
70.57
21
-82.978
0
LINE
8
BLACK
6
CONTINUOUS
10
70.57
20
-82.978
11
70.57
21
-83.778
0
LINE
8
BLACK
6
CONTINUOUS
10
82.376
20
-82.984
11
81.576
21
-82.984
0
LINE
8
BLACK
6
CONTINUOUS
10
81.576
20
-82.984
11
81.576
21
-82.084
0
LINE
8
BLACK
6
CONTINUOUS
10
81.576
20
-82.084
11
82.376
21
-82.084
0
LINE
8
BLACK
6
CONTINUOUS
10
82.376
20
-82.084
11
82.376
21
-82.984
0
LINE
8
BLACK
6
CONTINUOUS
10
80.476
20
-82.984
11
79.676
21
-82.984
0
LINE
8
BLACK
6
CONTINUOUS
10
79.676
20
-82.984
11
79.676
21
-82.084
0
LINE
8
BLACK
6
CONTINUOUS
10
79.676
20
-82.084
11
80.476
21
-82.084
0
LINE
8
BLACK
6
CONTINUOUS
10
80.476
20
-82.084
11
80.476
21
-82.984
0
LINE
8
BLACK
6
CONTINUOUS
10
76.92
20
-82.984
11
76.12
21
-82.984
0
LINE
8
BLACK
6
CONTINUOUS
10
76.12
20
-82.984
11
76.12
21
-82.084
0
LINE
8
BLACK
6
CONTINUOUS
10
76.12
20
-82.084
11
76.92
21
-82.084
0
LINE
8
BLACK
6
CONTINUOUS
10
76.92
20
-82.084
11
76.92
21
-82.984
0
LINE
8
BLACK
6
CONTINUOUS
10
78.82
20
-82.984
11
78.02
21
-82.984
0
LINE
8
BLACK
6
CONTINUOUS
10
78.02
20
-82.984
11
78.02
21
-82.084
0
LINE
8
BLACK
6
CONTINUOUS
10
78.02
20
-82.084
11
78.82
21
-82.084
0
LINE
8
BLACK
6
CONTINUOUS
10
78.82
20
-82.084
11
78.82
21
-82.984
0
LINE
8
BLACK
6
CONTINUOUS
10
70.554
20
-82.534
11
69.654
21
-82.534
0
LINE
8
BLACK
6
CONTINUOUS
10
69.654
20
-82.534
11
69.654
21
-82.034
0
LINE
8
BLACK
6
CONTINUOUS
10
69.654
20
-82.034
11
70.554
21
-82.034
0
LINE
8
BLACK
6
CONTINUOUS
10
70.554
20
-82.034
11
70.554
21
-82.534
0
LINE
8
BLACK
6
CONTINUOUS
10
87.522
20
-81.206
11
86.722
21
-81.206
0
LINE
8
BLACK
6
CONTINUOUS
10
86.722
20
-81.206
11
86.722
21
-80.306
0
LINE
8
BLACK
6
CONTINUOUS
10
86.722
20
-80.306
11
87.522
21
-80.306
0
LINE
8
BLACK
6
CONTINUOUS
10
87.522
20
-80.306
11
87.522
21
-81.206
0
LINE
8
BLACK
6
CONTINUOUS
10
72.028
20
-81.206
11
71.228
21
-81.206
0
LINE
8
BLACK
6
CONTINUOUS
10
71.228
20
-81.206
11
71.228
21
-80.306
0
LINE
8
BLACK
6
CONTINUOUS
10
71.228
20
-80.306
11
72.028
21
-80.306
0
LINE
8
BLACK
6
CONTINUOUS
10
72.028
20
-80.306
11
72.028
21
-81.206
0
LINE
8
BLACK
6
CONTINUOUS
10
70.554
20
-81.034
11
69.654
21
-81.034
0
LINE
8
BLACK
6
CONTINUOUS
10
69.654
20
-81.034
11
69.654
21
-80.534
0
LINE
8
BLACK
6
CONTINUOUS
10
69.654
20
-80.534
11
70.554
21
-80.534
0
LINE
8
BLACK
6
CONTINUOUS
10
70.554
20
-80.534
11
70.554
21
-81.034
0
LINE
8
BLACK
6
CONTINUOUS
10
81.426
20
-80.984
11
80.626
21
-80.984
0
LINE
8
BLACK
6
CONTINUOUS
10
80.626
20
-80.984
11
80.626
21
-80.084
0
LINE
8
BLACK
6
CONTINUOUS
10
80.626
20
-80.084
11
81.426
21
-80.084
0
LINE
8
BLACK
6
CONTINUOUS
10
81.426
20
-80.084
11
81.426
21
-80.984
0
LINE
8
BLACK
6
CONTINUOUS
10
77.87
20
-80.984
11
77.07
21
-80.984
0
LINE
8
BLACK
6
CONTINUOUS
10
77.07
20
-80.984
11
77.07
21
-80.084
0
LINE
8
BLACK
6
CONTINUOUS
10
77.07
20
-80.084
11
77.87
21
-80.084
0
LINE
8
BLACK
6
CONTINUOUS
10
77.87
20
-80.084
11
77.87
21
-80.984
0
LINE
8
BLACK
6
CONTINUOUS
10
71.078
20
-79.206
11
70.278
21
-79.206
0
LINE
8
BLACK
6
CONTINUOUS
10
70.278
20
-79.206
11
70.278
21
-78.306
0
LINE
8
BLACK
6
CONTINUOUS
10
70.278
20
-78.306
11
71.078
21
-78.306
0
LINE
8
BLACK
6
CONTINUOUS
10
71.078
20
-78.306
11
71.078
21
-79.206
0
LINE
8
BLACK
6
CONTINUOUS
10
72.978
20
-79.206
11
72.178
21
-79.206
0
LINE
8
BLACK
6
CONTINUOUS
10
72.178
20
-79.206
11
72.178
21
-78.306
0
LINE
8
BLACK
6
CONTINUOUS
10
72.178
20
-78.306
11
72.978
21
-78.306
0
LINE
8
BLACK
6
CONTINUOUS
10
72.978
20
-78.306
11
72.978
21
-79.206
0
LINE
8
BLACK
6
CONTINUOUS
10
86.572
20
-79.206
11
85.772
21
-79.206
0
LINE
8
BLACK
6
CONTINUOUS
10
85.772
20
-79.206
11
85.772
21
-78.306
0
LINE
8
BLACK
6
CONTINUOUS
10
85.772
20
-78.306
11
86.572
21
-78.306
0
LINE
8
BLACK
6
CONTINUOUS
10
86.572
20
-78.306
11
86.572
21
-79.206
0
LINE
8
BLACK
6
CONTINUOUS
10
88.472
20
-79.206
11
87.672
21
-79.206
0
LINE
8
BLACK
6
CONTINUOUS
10
87.672
20
-79.206
11
87.672
21
-78.306
0
LINE
8
BLACK
6
CONTINUOUS
10
87.672
20
-78.306
11
88.472
21
-78.306
0
LINE
8
BLACK
6
CONTINUOUS
10
88.472
20
-78.306
11
88.472
21
-79.206
0
LINE
8
BLACK
6
CONTINUOUS
10
88.588
20
-77.708
11
87.688
21
-77.708
0
LINE
8
BLACK
6
CONTINUOUS
10
87.688
20
-77.708
11
87.688
21
-77.208
0
LINE
8
BLACK
6
CONTINUOUS
10
87.688
20
-77.208
11
88.588
21
-77.208
0
LINE
8
BLACK
6
CONTINUOUS
10
88.588
20
-77.208
11
88.588
21
-77.708
0
LINE
8
BLACK
6
CONTINUOUS
10
73.644
20
-77.412
11
73.144
21
-77.412
0
LINE
8
BLACK
6
CONTINUOUS
10
73.144
20
-77.412
11
73.144
21
-76.512
0
LINE
8
BLACK
6
CONTINUOUS
10
73.144
20
-76.512
11
73.644
21
-76.512
0
LINE
8
BLACK
6
CONTINUOUS
10
73.644
20
-76.512
11
73.644
21
-77.412
0
LINE
8
BLACK
6
CONTINUOUS
10
72.144
20
-77.412
11
71.644
21
-77.412
0
LINE
8
BLACK
6
CONTINUOUS
10
71.644
20
-77.412
11
71.644
21
-76.512
0
LINE
8
BLACK
6
CONTINUOUS
10
71.644
20
-76.512
11
72.144
21
-76.512
0
LINE
8
BLACK
6
CONTINUOUS
10
72.144
20
-76.512
11
72.144
21
-77.412
0
LINE
8
BLACK
6
CONTINUOUS
10
88.588
20
-76.208
11
87.688
21
-76.208
0
LINE
8
BLACK
6
CONTINUOUS
10
87.688
20
-76.208
11
87.688
21
-75.708
0
LINE
8
BLACK
6
CONTINUOUS
10
87.688
20
-75.708
11
88.588
21
-75.708
0
LINE
8
BLACK
6
CONTINUOUS
10
88.588
20
-75.708
11
88.588
21
-76.208
0
LINE
8
BLACK
6
CONTINUOUS
10
70.808
20
-74.914
11
69.908
21
-74.914
0
LINE
8
BLACK
6
CONTINUOUS
10
69.908
20
-74.914
11
69.908
21
-74.414
0
LINE
8
BLACK
6
CONTINUOUS
10
69.908
20
-74.414
11
70.808
21
-74.414
0
LINE
8
BLACK
6
CONTINUOUS
10
70.808
20
-74.414
11
70.808
21
-74.914
0
LINE
8
BLACK
6
CONTINUOUS
10
72.586
20
-74.914
11
71.686
21
-74.914
0
LINE
8
BLACK
6
CONTINUOUS
10
71.686
20
-74.914
11
71.686
21
-74.414
0
LINE
8
BLACK
6
CONTINUOUS
10
71.686
20
-74.414
11
72.586
21
-74.414
0
LINE
8
BLACK
6
CONTINUOUS
10
72.586
20
-74.414
11
72.586
21
-74.914
0
LINE
8
BLACK
6
CONTINUOUS
10
78.077
20
-74.52
11
77.677
21
-74.52
0
LINE
8
BLACK
6
CONTINUOUS
10
77.677
20
-74.52
11
77.677
21
-73.42
0
LINE
8
BLACK
6
CONTINUOUS
10
77.677
20
-73.42
11
78.077
21
-73.42
0
LINE
8
BLACK
6
CONTINUOUS
10
78.077
20
-73.42
11
78.077
21
-74.52
0
LINE
8
BLACK
6
CONTINUOUS
10
76.127
20
-74.52
11
75.727
21
-74.52
0
LINE
8
BLACK
6
CONTINUOUS
10
75.727
20
-74.52
11
75.727
21
-73.42
0
LINE
8
BLACK
6
CONTINUOUS
10
75.727
20
-73.42
11
76.127
21
-73.42
0
LINE
8
BLACK
6
CONTINUOUS
10
76.127
20
-73.42
11
76.127
21
-74.52
0
LINE
8
BLACK
6
CONTINUOUS
10
83.927
20
-74.52
11
83.527
21
-74.52
0
LINE
8
BLACK
6
CONTINUOUS
10
83.527
20
-74.52
11
83.527
21
-73.42
0
LINE
8
BLACK
6
CONTINUOUS
10
83.527
20
-73.42
11
83.927
21
-73.42
0
LINE
8
BLACK
6
CONTINUOUS
10
83.927
20
-73.42
11
83.927
21
-74.52
0
LINE
8
BLACK
6
CONTINUOUS
10
78.727
20
-74.52
11
78.327
21
-74.52
0
LINE
8
BLACK
6
CONTINUOUS
10
78.327
20
-74.52
11
78.327
21
-73.42
0
LINE
8
BLACK
6
CONTINUOUS
10
78.327
20
-73.42
11
78.727
21
-73.42
0
LINE
8
BLACK
6
CONTINUOUS
10
78.727
20
-73.42
11
78.727
21
-74.52
0
LINE
8
BLACK
6
CONTINUOUS
10
79.377
20
-74.52
11
78.977
21
-74.52
0
LINE
8
BLACK
6
CONTINUOUS
10
78.977
20
-74.52
11
78.977
21
-73.42
0
LINE
8
BLACK
6
CONTINUOUS
10
78.977
20
-73.42
11
79.377
21
-73.42
0
LINE
8
BLACK
6
CONTINUOUS
10
79.377
20
-73.42
11
79.377
21
-74.52
0
LINE
8
BLACK
6
CONTINUOUS
10
80.027
20
-74.52
11
79.627
21
-74.52
0
LINE
8
BLACK
6
CONTINUOUS
10
79.627
20
-74.52
11
79.627
21
-73.42
0
LINE
8
BLACK
6
CONTINUOUS
10
79.627
20
-73.42
11
80.027
21
-73.42
0
LINE
8
BLACK
6
CONTINUOUS
10
80.027
20
-73.42
11
80.027
21
-74.52
0
LINE
8
BLACK
6
CONTINUOUS
10
80.677
20
-74.52
11
80.277
21
-74.52
0
LINE
8
BLACK
6
CONTINUOUS
10
80.277
20
-74.52
11
80.277
21
-73.42
0
LINE
8
BLACK
6
CONTINUOUS
10
80.277
20
-73.42
11
80.677
21
-73.42
0
LINE
8
BLACK
6
CONTINUOUS
10
80.677
20
-73.42
11
80.677
21
-74.52
0
LINE
8
BLACK
6
CONTINUOUS
10
81.327
20
-74.52
11
80.927
21
-74.52
0
LINE
8
BLACK
6
CONTINUOUS
10
80.927
20
-74.52
11
80.927
21
-73.42
0
LINE
8
BLACK
6
CONTINUOUS
10
80.927
20
-73.42
11
81.327
21
-73.42
0
LINE
8
BLACK
6
CONTINUOUS
10
81.327
20
-73.42
11
81.327
21
-74.52
0
LINE
8
BLACK
6
CONTINUOUS
10
81.977
20
-74.52
11
81.577
21
-74.52
0
LINE
8
BLACK
6
CONTINUOUS
10
81.577
20
-74.52
11
81.577
21
-73.42
0
LINE
8
BLACK
6
CONTINUOUS
10
81.577
20
-73.42
11
81.977
21
-73.42
0
LINE
8
BLACK
6
CONTINUOUS
10
81.977
20
-73.42
11
81.977
21
-74.52
0
LINE
8
BLACK
6
CONTINUOUS
10
82.627
20
-74.52
11
82.227
21
-74.52
0
LINE
8
BLACK
6
CONTINUOUS
10
82.227
20
-74.52
11
82.227
21
-73.42
0
LINE
8
BLACK
6
CONTINUOUS
10
82.227
20
-73.42
11
82.627
21
-73.42
0
LINE
8
BLACK
6
CONTINUOUS
10
82.627
20
-73.42
11
82.627
21
-74.52
0
LINE
8
BLACK
6
CONTINUOUS
10
83.277
20
-74.52
11
82.877
21
-74.52
0
LINE
8
BLACK
6
CONTINUOUS
10
82.877
20
-74.52
11
82.877
21
-73.42
0
LINE
8
BLACK
6
CONTINUOUS
10
82.877
20
-73.42
11
83.277
21
-73.42
0
LINE
8
BLACK
6
CONTINUOUS
10
83.277
20
-73.42
11
83.277
21
-74.52
0
LINE
8
BLACK
6
CONTINUOUS
10
75.477
20
-74.52
11
75.077
21
-74.52
0
LINE
8
BLACK
6
CONTINUOUS
10
75.077
20
-74.52
11
75.077
21
-73.42
0
LINE
8
BLACK
6
CONTINUOUS
10
75.077
20
-73.42
11
75.477
21
-73.42
0
LINE
8
BLACK
6
CONTINUOUS
10
75.477
20
-73.42
11
75.477
21
-74.52
0
LINE
8
BLACK
6
CONTINUOUS
10
77.427
20
-74.52
11
77.027
21
-74.52
0
LINE
8
BLACK
6
CONTINUOUS
10
77.027
20
-74.52
11
77.027
21
-73.42
0
LINE
8
BLACK
6
CONTINUOUS
10
77.027
20
-73.42
11
77.427
21
-73.42
0
LINE
8
BLACK
6
CONTINUOUS
10
77.427
20
-73.42
11
77.427
21
-74.52
0
LINE
8
BLACK
6
CONTINUOUS
10
76.777
20
-74.52
11
76.377
21
-74.52
0
LINE
8
BLACK
6
CONTINUOUS
10
76.377
20
-74.52
11
76.377
21
-73.42
0
LINE
8
BLACK
6
CONTINUOUS
10
76.377
20
-73.42
11
76.777
21
-73.42
0
LINE
8
BLACK
6
CONTINUOUS
10
76.777
20
-73.42
11
76.777
21
-74.52
0
LINE
8
BLACK
6
CONTINUOUS
10
70.808
20
-73.414
11
69.908
21
-73.414
0
LINE
8
BLACK
6
CONTINUOUS
10
69.908
20
-73.414
11
69.908
21
-72.914
0
LINE
8
BLACK
6
CONTINUOUS
10
69.908
20
-72.914
11
70.808
21
-72.914
0
LINE
8
BLACK
6
CONTINUOUS
10
70.808
20
-72.914
11
70.808
21
-73.414
0
LINE
8
BLACK
6
CONTINUOUS
10
72.586
20
-73.414
11
71.686
21
-73.414
0
LINE
8
BLACK
6
CONTINUOUS
10
71.686
20
-73.414
11
71.686
21
-72.914
0
LINE
8
BLACK
6
CONTINUOUS
10
71.686
20
-72.914
11
72.586
21
-72.914
0
LINE
8
BLACK
6
CONTINUOUS
10
72.586
20
-72.914
11
72.586
21
-73.414
0
LINE
8
BLACK
6
CONTINUOUS
10
72.257
20
-72.27
11
71.507
21
-72.27
0
LINE
8
BLACK
6
CONTINUOUS
10
71.507
20
-72.27
11
71.507
21
-71.47
0
LINE
8
BLACK
6
CONTINUOUS
10
71.507
20
-71.47
11
72.257
21
-71.47
0
LINE
8
BLACK
6
CONTINUOUS
10
72.257
20
-71.47
11
72.257
21
-72.27
0
LINE
8
BLACK
6
CONTINUOUS
10
70.733
20
-72.27
11
69.983
21
-72.27
0
LINE
8
BLACK
6
CONTINUOUS
10
69.983
20
-72.27
11
69.983
21
-71.47
0
LINE
8
BLACK
6
CONTINUOUS
10
69.983
20
-71.47
11
70.733
21
-71.47
0
LINE
8
BLACK
6
CONTINUOUS
10
70.733
20
-71.47
11
70.733
21
-72.27
0
LINE
8
BLACK
6
CONTINUOUS
10
73.856
20
-72.12
11
72.956
21
-72.12
0
LINE
8
BLACK
6
CONTINUOUS
10
72.956
20
-72.12
11
72.956
21
-71.62
0
LINE
8
BLACK
6
CONTINUOUS
10
72.956
20
-71.62
11
73.856
21
-71.62
0
LINE
8
BLACK
6
CONTINUOUS
10
73.856
20
-71.62
11
73.856
21
-72.12
0
LINE
8
BLACK
6
CONTINUOUS
10
70.733
20
-70.77
11
69.983
21
-70.77
0
LINE
8
BLACK
6
CONTINUOUS
10
69.983
20
-70.77
11
69.983
21
-69.97
0
LINE
8
BLACK
6
CONTINUOUS
10
69.983
20
-69.97
11
70.733
21
-69.97
0
LINE
8
BLACK
6
CONTINUOUS
10
70.733
20
-69.97
11
70.733
21
-70.77
0
LINE
8
BLACK
6
CONTINUOUS
10
72.257
20
-70.77
11
71.507
21
-70.77
0
LINE
8
BLACK
6
CONTINUOUS
10
71.507
20
-70.77
11
71.507
21
-69.97
0
LINE
8
BLACK
6
CONTINUOUS
10
71.507
20
-69.97
11
72.257
21
-69.97
0
LINE
8
BLACK
6
CONTINUOUS
10
72.257
20
-69.97
11
72.257
21
-70.77
0
LINE
8
BLACK
6
CONTINUOUS
10
73.856
20
-70.62
11
72.956
21
-70.62
0
LINE
8
BLACK
6
CONTINUOUS
10
72.956
20
-70.62
11
72.956
21
-70.12
0
LINE
8
BLACK
6
CONTINUOUS
10
72.956
20
-70.12
11
73.856
21
-70.12
0
LINE
8
BLACK
6
CONTINUOUS
10
73.856
20
-70.12
11
73.856
21
-70.62
0
LINE
8
BLACK
6
CONTINUOUS
10
70.808
20
-69.314
11
69.908
21
-69.314
0
LINE
8
BLACK
6
CONTINUOUS
10
69.908
20
-69.314
11
69.908
21
-68.814
0
LINE
8
BLACK
6
CONTINUOUS
10
69.908
20
-68.814
11
70.808
21
-68.814
0
LINE
8
BLACK
6
CONTINUOUS
10
70.808
20
-68.814
11
70.808
21
-69.314
0
LINE
8
BLACK
6
CONTINUOUS
10
72.332
20
-69.314
11
71.432
21
-69.314
0
LINE
8
BLACK
6
CONTINUOUS
10
71.432
20
-69.314
11
71.432
21
-68.814
0
LINE
8
BLACK
6
CONTINUOUS
10
71.432
20
-68.814
11
72.332
21
-68.814
0
LINE
8
BLACK
6
CONTINUOUS
10
72.332
20
-68.814
11
72.332
21
-69.314
0
LINE
8
BLACK
6
CONTINUOUS
10
73.856
20
-69.314
11
72.956
21
-69.314
0
LINE
8
BLACK
6
CONTINUOUS
10
72.956
20
-69.314
11
72.956
21
-68.814
0
LINE
8
BLACK
6
CONTINUOUS
10
72.956
20
-68.814
11
73.856
21
-68.814
0
LINE
8
BLACK
6
CONTINUOUS
10
73.856
20
-68.814
11
73.856
21
-69.314
0
LINE
8
BLACK
6
CONTINUOUS
10
83.277
20
-68.82
11
82.877
21
-68.82
0
LINE
8
BLACK
6
CONTINUOUS
10
82.877
20
-68.82
11
82.877
21
-67.72
0
LINE
8
BLACK
6
CONTINUOUS
10
82.877
20
-67.72
11
83.277
21
-67.72
0
LINE
8
BLACK
6
CONTINUOUS
10
83.277
20
-67.72
11
83.277
21
-68.82
0
LINE
8
BLACK
6
CONTINUOUS
10
83.927
20
-68.82
11
83.527
21
-68.82
0
LINE
8
BLACK
6
CONTINUOUS
10
83.527
20
-68.82
11
83.527
21
-67.72
0
LINE
8
BLACK
6
CONTINUOUS
10
83.527
20
-67.72
11
83.927
21
-67.72
0
LINE
8
BLACK
6
CONTINUOUS
10
83.927
20
-67.72
11
83.927
21
-68.82
0
LINE
8
BLACK
6
CONTINUOUS
10
75.477
20
-68.82
11
75.077
21
-68.82
0
LINE
8
BLACK
6
CONTINUOUS
10
75.077
20
-68.82
11
75.077
21
-67.72
0
LINE
8
BLACK
6
CONTINUOUS
10
75.077
20
-67.72
11
75.477
21
-67.72
0
LINE
8
BLACK
6
CONTINUOUS
10
75.477
20
-67.72
11
75.477
21
-68.82
0
LINE
8
BLACK
6
CONTINUOUS
10
76.127
20
-68.82
11
75.727
21
-68.82
0
LINE
8
BLACK
6
CONTINUOUS
10
75.727
20
-68.82
11
75.727
21
-67.72
0
LINE
8
BLACK
6
CONTINUOUS
10
75.727
20
-67.72
11
76.127
21
-67.72
0
LINE
8
BLACK
6
CONTINUOUS
10
76.127
20
-67.72
11
76.127
21
-68.82
0
LINE
8
BLACK
6
CONTINUOUS
10
76.777
20
-68.82
11
76.377
21
-68.82
0
LINE
8
BLACK
6
CONTINUOUS
10
76.377
20
-68.82
11
76.377
21
-67.72
0
LINE
8
BLACK
6
CONTINUOUS
10
76.377
20
-67.72
11
76.777
21
-67.72
0
LINE
8
BLACK
6
CONTINUOUS
10
76.777
20
-67.72
11
76.777
21
-68.82
0
LINE
8
BLACK
6
CONTINUOUS
10
77.427
20
-68.82
11
77.027
21
-68.82
0
LINE
8
BLACK
6
CONTINUOUS
10
77.027
20
-68.82
11
77.027
21
-67.72
0
LINE
8
BLACK
6
CONTINUOUS
10
77.027
20
-67.72
11
77.427
21
-67.72
0
LINE
8
BLACK
6
CONTINUOUS
10
77.427
20
-67.72
11
77.427
21
-68.82
0
LINE
8
BLACK
6
CONTINUOUS
10
78.077
20
-68.82
11
77.677
21
-68.82
0
LINE
8
BLACK
6
CONTINUOUS
10
77.677
20
-68.82
11
77.677
21
-67.72
0
LINE
8
BLACK
6
CONTINUOUS
10
77.677
20
-67.72
11
78.077
21
-67.72
0
LINE
8
BLACK
6
CONTINUOUS
10
78.077
20
-67.72
11
78.077
21
-68.82
0
LINE
8
BLACK
6
CONTINUOUS
10
82.627
20
-68.82
11
82.227
21
-68.82
0
LINE
8
BLACK
6
CONTINUOUS
10
82.227
20
-68.82
11
82.227
21
-67.72
0
LINE
8
BLACK
6
CONTINUOUS
10
82.227
20
-67.72
11
82.627
21
-67.72
0
LINE
8
BLACK
6
CONTINUOUS
10
82.627
20
-67.72
11
82.627
21
-68.82
0
LINE
8
BLACK
6
CONTINUOUS
10
78.727
20
-68.82
11
78.327
21
-68.82
0
LINE
8
BLACK
6
CONTINUOUS
10
78.327
20
-68.82
11
78.327
21
-67.72
0
LINE
8
BLACK
6
CONTINUOUS
10
78.327
20
-67.72
11
78.727
21
-67.72
0
LINE
8
BLACK
6
CONTINUOUS
10
78.727
20
-67.72
11
78.727
21
-68.82
0
LINE
8
BLACK
6
CONTINUOUS
10
79.377
20
-68.82
11
78.977
21
-68.82
0
LINE
8
BLACK
6
CONTINUOUS
10
78.977
20
-68.82
11
78.977
21
-67.72
0
LINE
8
BLACK
6
CONTINUOUS
10
78.977
20
-67.72
11
79.377
21
-67.72
0
LINE
8
BLACK
6
CONTINUOUS
10
79.377
20
-67.72
11
79.377
21
-68.82
0
LINE
8
BLACK
6
CONTINUOUS
10
80.027
20
-68.82
11
79.627
21
-68.82
0
LINE
8
BLACK
6
CONTINUOUS
10
79.627
20
-68.82
11
79.627
21
-67.72
0
LINE
8
BLACK
6
CONTINUOUS
10
79.627
20
-67.72
11
80.027
21
-67.72
0
LINE
8
BLACK
6
CONTINUOUS
10
80.027
20
-67.72
11
80.027
21
-68.82
0
LINE
8
BLACK
6
CONTINUOUS
10
80.677
20
-68.82
11
80.277
21
-68.82
0
LINE
8
BLACK
6
CONTINUOUS
10
80.277
20
-68.82
11
80.277
21
-67.72
0
LINE
8
BLACK
6
CONTINUOUS
10
80.277
20
-67.72
11
80.677
21
-67.72
0
LINE
8
BLACK
6
CONTINUOUS
10
80.677
20
-67.72
11
80.677
21
-68.82
0
LINE
8
BLACK
6
CONTINUOUS
10
81.327
20
-68.82
11
80.927
21
-68.82
0
LINE
8
BLACK
6
CONTINUOUS
10
80.927
20
-68.82
11
80.927
21
-67.72
0
LINE
8
BLACK
6
CONTINUOUS
10
80.927
20
-67.72
11
81.327
21
-67.72
0
LINE
8
BLACK
6
CONTINUOUS
10
81.327
20
-67.72
11
81.327
21
-68.82
0
LINE
8
BLACK
6
CONTINUOUS
10
81.977
20
-68.82
11
81.577
21
-68.82
0
LINE
8
BLACK
6
CONTINUOUS
10
81.577
20
-68.82
11
81.577
21
-67.72
0
LINE
8
BLACK
6
CONTINUOUS
10
81.577
20
-67.72
11
81.977
21
-67.72
0
LINE
8
BLACK
6
CONTINUOUS
10
81.977
20
-67.72
11
81.977
21
-68.82
0
LINE
8
BLACK
6
CONTINUOUS
10
87.36
20
-68.268
11
86.86
21
-68.268
0
LINE
8
BLACK
6
CONTINUOUS
10
86.86
20
-68.268
11
86.86
21
-67.368
0
LINE
8
BLACK
6
CONTINUOUS
10
86.86
20
-67.368
11
87.36
21
-67.368
0
LINE
8
BLACK
6
CONTINUOUS
10
87.36
20
-67.368
11
87.36
21
-68.268
0
LINE
8
BLACK
6
CONTINUOUS
10
85.86
20
-68.268
11
85.36
21
-68.268
0
LINE
8
BLACK
6
CONTINUOUS
10
85.36
20
-68.268
11
85.36
21
-67.368
0
LINE
8
BLACK
6
CONTINUOUS
10
85.36
20
-67.368
11
85.86
21
-67.368
0
LINE
8
BLACK
6
CONTINUOUS
10
85.86
20
-67.368
11
85.86
21
-68.268
0
LINE
8
BLACK
6
CONTINUOUS
10
72.332
20
-67.814
11
71.432
21
-67.814
0
LINE
8
BLACK
6
CONTINUOUS
10
71.432
20
-67.814
11
71.432
21
-67.314
0
LINE
8
BLACK
6
CONTINUOUS
10
71.432
20
-67.314
11
72.332
21
-67.314
0
LINE
8
BLACK
6
CONTINUOUS
10
72.332
20
-67.314
11
72.332
21
-67.814
0
LINE
8
BLACK
6
CONTINUOUS
10
70.808
20
-67.814
11
69.908
21
-67.814
0
LINE
8
BLACK
6
CONTINUOUS
10
69.908
20
-67.814
11
69.908
21
-67.314
0
LINE
8
BLACK
6
CONTINUOUS
10
69.908
20
-67.314
11
70.808
21
-67.314
0
LINE
8
BLACK
6
CONTINUOUS
10
70.808
20
-67.314
11
70.808
21
-67.814
0
LINE
8
BLACK
6
CONTINUOUS
10
73.856
20
-67.814
11
72.956
21
-67.814
0
LINE
8
BLACK
6
CONTINUOUS
10
72.956
20
-67.814
11
72.956
21
-67.314
0
LINE
8
BLACK
6
CONTINUOUS
10
72.956
20
-67.314
11
73.856
21
-67.314
0
LINE
8
BLACK
6
CONTINUOUS
10
73.856
20
-67.314
11
73.856
21
-67.814
  0
ENDSEC
  0
EOF
